<mxfile host="app.diagrams.net" modified="2024-03-03T11:56:00.936Z" agent="Mozilla/5.0 (Windows NT 10.0; Win64; x64) AppleWebKit/537.36 (KHTML, like Gecko) Chrome/122.0.0.0 Safari/537.36" version="24.0.1" etag="pGLCe-tA53o8uueSzHPC" type="github">
  <diagram name="第 1 页" id="rfyp5XbZHHv5G1FWqzIb">
    <mxGraphModel>
      <root>
        <mxCell id="0" />
        <mxCell id="1" parent="0" />
      </root>
    </mxGraphModel>
  </diagram>
</mxfile>
